<svg width="245" height="405" viewBox="0 0 245 405" fill="none" xmlns="http://www.w3.org/2000/svg">
<path fill-rule="evenodd" clip-rule="evenodd" d="M4.86915 636.143C3.4935 630.582 5.51748 626.147 11.3286 622.872C11.8287 621.549 23.0601 617.259 31.9846 610.961C40.0023 605.304 45.8179 597.537 46.0617 597.107C47.2636 594.311 47.9331 592.282 48.0701 591.02C49.0557 581.941 48.4856 575.989 49.0942 573.165C44.9935 572.627 34.9121 306.296 36.5425 297.469C33.8721 296.882 31.0401 296.263 28.4943 294.757C28.2913 294.705 28.6251 294.115 28.6156 294.004C22.2288 281.465 32.0263 238.827 38.167 227.023C33.2906 226.896 26.8676 226.232 23.8485 222.16C22.4193 221.69 21.5183 220.87 20.8247 219.554C20.026 218.299 19.2847 216.983 18.6173 215.635C15.3683 208.885 13.364 201.39 14.4475 193.953C14.2408 193.887 13.1774 193.88 13.1245 193.583C13.0201 191.755 13.3558 190.144 13.9049 188.417C19.4844 168.967 26.2006 149.818 35.0784 131.507C39.5272 121.706 48.7313 118.13 58.2681 114.451C62.856 112.648 67.446 110.567 72.2343 109.387C72.2947 109.052 72.0087 108.032 72.6362 108.115C73.4112 108.277 73.2583 109.523 73.5457 110.223C84.6176 101.158 77.5963 96.4875 84.2724 91.5233C91.1805 87.9372 99.6054 87.7916 107.222 88.5677C110.032 88.649 112.28 89.9157 112.943 92.7443C115.358 98.597 121.018 102.905 127.192 104.225C127.702 103.317 129.105 100.712 129.891 101.534C138.808 101.839 152.328 105.113 160.675 107.562C169.054 109.702 177.53 113.609 179.722 122.714C183.699 138.938 177.372 205.615 166.992 218.456L166.655 218.461C164.815 220.345 162.313 221.725 159.479 222.65C159.543 228.653 161.435 234.514 162.376 240.385C164.496 251.033 166.125 261.691 168.487 272.395C168.497 273.588 172.99 289.908 168.561 286.635C167.646 287.085 166.526 287.575 165.542 287.995C170.248 298.721 172.401 316.027 172.068 329.277C171.984 337.168 172.311 344.08 174.08 352.161C187.174 420.627 198.719 573.764 198.991 575.811C199.24 577.768 197.583 588.389 198.991 591.191C200.24 593.678 205.567 592.209 206.586 593.169C209.233 597.479 208.021 600.226 210.192 604.53C211.306 605.526 213.795 607.706 214.612 609.237C216.265 610.83 243.645 628.798 242.535 631.524C242.535 631.524 242.66 632.832 242.702 633.117C245.036 646.7 241.149 646.587 228.573 648.585C210.201 651.826 196.471 645.59 180.945 637.26C175.786 633.78 168.452 627.136 170.839 619.268C170.905 618.787 172.321 610.511 172.883 606.308C171.868 604.065 173.324 603.083 177.25 603.362C176.282 602.3 174.154 588.527 174.88 586.705C175.341 582.012 174.625 577.752 174.851 572.922C172.385 573.105 129.074 367.758 101.908 354.998C101.74 356.362 102.066 358.901 100.255 359.155C91.8527 424.714 71.6497 571.582 70.7221 571.839C72.1144 579.326 72.0722 596.681 72.0982 604.113C72.3112 604.312 73.2893 605.185 73.4467 605.398C73.4795 605.343 74.1164 605.979 74.149 605.995L74.2351 605.798C77.0968 612.251 81.2674 618.898 77.5812 625.222C80.317 625.023 79.8779 630.288 80.0003 632.711C78.442 637.452 34.1437 650.244 24.2445 650.852C20.9921 651.419 5.84486 646.601 2.92994 645.909C-0.847004 645.203 2.8582 638.182 4.86915 636.143Z" fill="white"/>
<path fill-rule="evenodd" clip-rule="evenodd" d="M127.454 103.759L127.192 104.225C120.906 122.568 110.602 132.439 96.2817 133.839C81.961 135.24 74.573 130.646 74.1176 120.06L72.5258 108.113C72.0443 108.161 72.2909 109.073 72.2344 109.387C67.4461 110.567 62.8561 112.648 58.2682 114.451L56.8407 115.003C47.8229 118.503 39.3048 122.196 35.0785 131.507C26.2007 149.818 19.4845 168.967 13.905 188.417C13.3559 190.144 13.0203 191.755 13.1246 193.583C13.1775 193.88 14.241 193.887 14.4476 193.953C13.3641 201.39 15.3684 208.885 18.6174 215.634C19.2849 216.983 20.0261 218.299 20.8248 219.554C21.5184 220.87 22.4194 221.69 23.8486 222.16C26.8677 226.232 33.2906 226.896 38.1671 227.023C32.0264 238.827 22.2289 281.465 28.6157 294.004C28.6252 294.115 28.4866 297.319 28.6896 297.371C31.2354 298.877 35.8177 299.746 38.4881 300.333L43.2733 301.017C43.1011 302.193 36.3256 303.079 36.4167 309.851L168.602 313.778C167.658 304.361 167.724 298.046 164.728 291.218L168.374 289.851C169.245 289.476 167.777 287.021 168.561 286.635C172.99 289.908 168.497 273.588 168.487 272.395C166.126 261.691 164.496 251.033 162.376 240.385C161.435 234.514 160.511 229.884 160.447 223.88C163.222 222.975 164.46 223.014 166.289 221.191L166.992 220.31L167.554 218.491C177.933 205.65 183.7 138.938 179.722 122.714C177.53 113.609 169.054 109.702 160.675 107.562L160.168 107.414C151.79 104.983 138.63 101.833 129.891 101.534C129.215 100.827 128.082 102.656 127.454 103.759ZM116.265 175.504C123.074 175.504 130.31 176.308 137.974 177.915L139.178 179.61L137.974 189.821C133.259 189.328 128.293 189.988 123.076 191.802L122.827 191.889C117.519 193.768 113.725 195.211 111.444 196.217L103.18 203.176L105.83 215.601L105.191 215.631C94.8391 216.096 89.0213 215.576 87.7373 214.071C86.4271 212.535 85.8459 210.981 85.9937 209.409L86.2479 208.802C90.3524 198.961 92.146 192.634 91.6286 189.821C91.1006 186.95 91.1006 184.7 91.6286 183.071L92.2038 182.772C101.572 177.927 109.592 175.504 116.265 175.504Z" fill="#EEEEEE"/>
<path fill-rule="evenodd" clip-rule="evenodd" d="M111.1 91.15C109.666 91.1062 109.392 92.9104 110.372 93.6585L110.413 93.6883C111.248 94.281 111.64 94.811 112.094 95.7566C114.305 101.609 120.54 104.965 126.638 103.722C124.52 107.673 123.097 111.497 120.977 115.382C111.214 135.494 79.1518 142.037 75.3172 114.442C81.1921 113.307 84.6738 100.095 80.9041 96.1529L80.8022 96.6326C79.7157 101.807 78.9724 107.105 75.0497 111.007C74.9303 111.042 74.8161 111.053 74.7035 111.053C74.5541 110.344 74.3818 109.644 74.1674 108.956C73.6453 107.28 71.0323 107.595 71.1057 109.409C63.2822 111.793 55.7639 115.17 48.2808 118.432C42.0595 121.146 36.9728 126 34.0747 132.148C25.9496 148.964 19.7456 166.714 14.3364 184.571C13.9741 186.984 9.92962 195.953 13.1927 196.815C12.3922 204.203 14.4394 211.676 17.6022 218.31C19.0697 220.803 20.1056 224.259 23.0538 225.299C26.1148 229.143 31.712 230.141 36.3719 230.413C30.1046 245.167 21.5888 282.75 27.3476 297.412C26.8365 299.817 33.4723 300.959 35.2478 301.509C33.8168 310.061 34.129 318.87 34.746 327.484C40.525 400.952 41.6218 474.824 35.5417 548.311C35.184 552.891 34.7987 557.471 34.391 562.049L34.1442 564.794C33.8207 568.449 33.5459 572.089 33.6299 575.773C33.657 577.052 34.7168 577.82 35.7764 577.886C39.3351 580.157 44.1149 580.175 48.2318 580.723C47.5047 584.692 47.0973 590.884 45.8246 594.224C43.1754 593.532 41.468 596.002 44.1083 597.397C40.8582 599.2 39.1861 602.653 36.5842 605.076C29.4375 602.173 28.1068 606.51 33.9469 607.5C32.3591 608.825 30.6735 610.049 28.931 611.212L28.8072 611.195C26.7468 610.882 22.8627 609.178 21.8873 611.435C21.4496 613.068 23.466 613.587 24.9266 613.786C23.6305 614.603 22.33 615.416 21.0294 616.228C19.8912 615.727 18.7623 615.101 17.6017 614.7C14.7447 614.064 14.4981 617.771 18.2265 617.98C15.8909 619.706 12.667 618.712 11.1742 621.147C5.7117 623.353 3.1297 630.014 4.40463 635.337C2.48687 637.043 1.14018 639.6 0.98454 642.169C0.614941 644.921 2.80522 647.51 5.77255 648.235C9.11471 649.347 12.5054 650.363 15.8868 651.318L16.2411 651.439C19.0281 652.389 22.0712 653.24 24.9697 653.074C42.1579 652.049 65.0785 644.988 78.8359 636.203C82.2672 633.623 82.8672 627.245 78.1448 625.205C80.321 621.26 79.2812 618.393 78.3588 614.096C77.7182 611.293 76.8484 608.417 75.2741 605.825C75.1344 605.594 74.7985 605.664 74.7798 605.89C74.5737 608.822 74.8473 611.822 75.0657 614.774L75.0897 615.102C75.2853 617.825 75.7264 618.827 74.9879 621.405C73.2198 627.982 56.1752 631.267 49.4771 633.98C44.219 635.608 38.8807 637.067 33.4674 638.35L33.0704 638.436C28.5006 639.441 23.7954 640.963 18.9824 640.173C16.4863 638.357 12.7401 638.868 10.2875 636.79C6.58809 632.795 9.49685 626.939 12.0889 623.309C14.5955 624.109 16.7381 621.957 18.5835 620.819L18.6518 620.777C20.536 619.585 22.4155 620.42 24.3027 619.231L24.729 619.312C31.6621 620.633 37.0301 622.14 25.9723 618.186C27.7937 617.047 29.6196 615.899 31.3888 614.692C35.0204 615.13 38.9992 617.037 42.3744 617.21C40.103 615.094 37.0042 613.922 34.0843 612.758C35.7842 611.467 37.4018 610.085 38.8488 608.566L40.231 608.91C48.7228 611.019 52.0608 611.629 40.6287 606.486C42.8771 603.989 43.2424 600.293 45.7143 597.944C49.6897 598.777 53.3425 600.525 56.5803 602.783C57.8896 603.721 58.8759 604.892 59.9129 606.065C64.8269 612.387 72.4396 613.362 74.7653 605.162C74.8054 604.994 74.5418 604.889 74.4676 605.032L74.459 605.052C73.3466 607.57 69.7576 609.612 66.7599 608.047L66.6693 607.998C63.7377 606.471 62.376 603.353 60.0667 601.23C56.9504 598.416 53.0442 596.53 49.0139 595.114C49.991 591.543 50.3207 585.044 50.2097 580.855C56.9957 581.176 63.8261 580.848 70.4925 579.558C69.4244 587.345 70.1265 597.479 69.6357 604.423C68.9261 606.753 73.2429 608.21 73.7018 605.889C73.9554 598.375 73.2205 587.537 72.0762 579.153L72.555 579.036C73.007 578.924 73.4818 578.788 73.8695 578.569C78.1475 579.054 76.9806 568.183 77.6989 565.125C82.5254 497.703 92.6923 430.885 101.332 363.907C102.531 363.448 102.743 361.977 102.941 360.748C113.829 368.118 115.999 382.847 120.872 394.263C142.157 453.377 151.667 515.743 166.419 576.617L166.338 576.638C166.28 576.655 166.279 576.664 166.4 576.655L166.428 576.653L166.428 576.658C165.517 576.778 164.799 577.735 165.355 578.627C167.016 581.978 171.619 580.792 174.65 580.579C174.355 585.741 175.461 596.88 174.76 601.479C171.022 601.548 170.785 605.663 170.29 608.109L170.251 608.36C169.591 612.538 167.37 620.373 169.029 623.752C166.465 626.802 168.309 630.947 170.969 633.03C173.817 635.135 177.362 636.368 180.582 637.99C195.735 644.112 210.395 655.915 228.964 651.373L229.773 651.202C242.787 648.452 246.526 647.23 243.942 634.349C245.003 631.731 245.01 628.864 243.517 626.549C240.853 623.131 236.379 621.261 232.818 618.665C226.787 614.612 220.368 611.068 214.477 606.85C214.696 606.66 214.392 606.59 214.214 606.622C210.056 603.367 210.445 597.733 207.545 593.712C206.82 591.641 203.157 591.136 200.745 591.423C201.499 587.561 197.817 569.985 197.35 582.4L197.35 582.578C197.341 584.495 197.027 590.893 197.591 592.146C189.585 594.593 187.859 602.284 186.146 608.495L186.035 608.525C185.489 608.666 184.756 608.78 184.482 609.317C181.908 607.681 181.189 604.46 178.695 602.726C179.395 602.18 179.432 601.136 179.075 600.326C177.913 596.069 177.217 585.232 175.463 580.477C183.705 579.242 192.101 578.614 200.151 576.373C201.197 577.4 203.343 577.036 203.259 575.181C200.766 534.766 196.478 494.476 191.073 454.351C186.629 416.792 178.812 379.712 173.366 342.35L173.32 337.222C173.173 321.807 172.761 306.162 167.014 291.649C167.52 291.428 168.021 291.2 168.515 290.961C174.748 293.544 169.838 277.846 169.608 275.017C166.545 258.614 162.938 242.214 160.637 225.709C163.049 224.836 165.275 223.599 167.132 221.801C178.393 212.634 184.921 138.396 180.829 123.469C178.692 114.079 169.639 109.466 161.011 107.344L159.737 106.984C150.1 104.273 140.296 101.817 130.263 101.213C129.906 100.889 128.855 100.982 128.718 101.252C128.089 101.631 127.493 102.37 126.988 103.151C113.062 101.55 116.829 92.4468 111.1 91.15ZM77.7834 625.798C79.7331 630.227 77.1424 633.595 72.799 635.456C57.7579 642.43 40.9659 648.035 23.7273 649.105C18.4674 647.833 13.2576 645.73 7.92752 644.43L7.6976 644.388C5.82136 644.044 4.93997 643.699 5.10101 641.749L5.0326 640.961C4.91237 639.561 4.81076 638.163 4.90825 636.764C6.54799 640.685 11.4561 642.84 15.7587 643.632C22.5809 646.87 30.2212 643.578 36.9238 642.191C47.8105 638.881 71.3638 633.679 77.7834 625.798ZM172.277 625.891L172.502 625.96C174.455 626.564 176.44 627.304 178.628 626.759C188.404 630.073 197.919 633.832 207.363 637.746C217.552 642.624 233.959 648.296 242.789 636.506C241.52 642.69 243.315 644.805 234.884 646.348C221.507 650.71 210.759 648.476 199.659 642.516C191.526 638.562 182.779 635.418 174.908 631.121L174.801 631.046C173.253 629.94 171.385 627.924 172.277 625.891ZM192.581 599.27C195.133 594.561 202.002 591.975 207.11 593.711C207.63 598.252 206.283 603.336 209.167 607.28C206.613 607.727 204.068 608.243 201.527 608.777L199.201 609.269C198.06 609.519 196.607 609.947 196.798 611.157C197.009 612.495 198.765 612.087 199.934 611.75L200.387 611.617C203.669 610.651 206.946 609.665 210.186 608.561C211.894 610.441 214.187 611.916 216.411 613.339L215.489 613.444C212.257 613.807 208.995 614.137 205.802 614.791C204.407 615.205 204.708 617.107 206.135 616.954C209.947 615.96 213.749 614.836 217.626 614.122C219.521 615.375 221.407 616.635 223.307 617.882C219.571 618.423 215.818 618.471 212.083 618.79C209.666 619.013 209.666 622.318 212.084 622.127C216.446 621.727 220.806 620.436 224.96 618.97L227.149 620.409C229.704 622.088 232.265 623.762 234.851 625.401C236.407 626.393 238.417 627.336 239.504 628.771C242.938 634.318 234.357 639.618 228.559 639.53C219.752 639.624 212.418 635.051 204.703 632.314C200.436 631.258 178.74 620.396 176.766 623.255C175.525 622.658 173.799 622.443 172.905 621.461C172.724 616.919 173.681 612.161 174.484 607.58C174.647 606.781 175.038 605.822 175.082 605.001C178.696 606.334 179.725 611.378 184.482 610.949C185.227 612.138 187.52 611.584 188.554 610.64C189.68 609.612 189.821 608.165 190.09 606.876L190.214 606.284C190.72 603.909 191.325 601.477 192.581 599.27ZM85.4905 214.071L86.0718 214.218C91.9912 215.699 98.1836 216.771 104.267 216.373C105.319 220.352 104.77 229.816 109.048 231.328C110.509 231.879 112.708 231.432 113.378 229.94C122.225 229.783 131.135 228.992 139.983 228.466C146.643 227.942 153.554 227.962 159.965 225.941C159.188 229.853 158.921 233.693 159.356 237.694C160.851 254.757 165.775 271.382 167.425 288.372L167.501 289.181L167.549 289.154C167.549 289.186 167.551 289.218 167.554 289.249C167.073 289.388 166.592 289.534 166.114 289.682C165.943 289.596 165.71 289.68 165.587 289.844C130.35 300.805 92.9484 305.565 56.2233 300.741C49.7916 299.938 43.4065 298.813 37.0662 297.48C37.1216 296.913 36.2564 296.764 36.1046 297.3C34.6975 297.055 33.2906 296.786 31.891 296.605C32.0599 296.129 32.0895 295.614 31.9161 295.149C29.1869 286.959 30.4338 277.622 31.2947 269.129C32.3926 256.089 35.1291 243.298 37.3397 230.433C47.8044 229.958 58.2064 228.25 68.7217 228.464C69.8294 231.335 73.6909 233.746 76.714 232.105C78.8487 230.952 79.4808 228.438 80.3376 226.361C82.0314 222.255 83.7609 218.163 85.4905 214.071ZM129.831 101.602C140.82 104.849 152.079 107.167 162.968 110.77C172.017 113.025 178.195 118.703 178.577 128.387C179.323 149.13 177.049 169.979 173.617 190.421L173.437 191.344C171.533 201.196 169.826 211.221 166.229 220.611C160.978 223.052 155.017 223.747 149.272 224.03C140.89 224.457 132.508 224.895 124.132 225.443L117.565 225.869C115.66 225.993 113.011 225.666 111.579 227.148C111.452 227.357 111.194 227.331 110.998 227.46L110.96 227.488C110.751 227.63 110.54 227.975 110.239 227.908C109.749 227.756 109.561 226.78 109.446 226.313L109.436 226.271C108.798 223.775 108.336 221.226 107.747 218.717C106.404 213.781 105.826 208.562 103.785 203.837C106.706 201.973 109.457 199.841 111.817 197.312L114.662 196.311C121.467 193.922 128.35 191.609 135.444 190.177C135.614 191.734 137.848 192.625 138.682 190.995C140.063 186.844 140.319 182.337 141.271 178.058C143.434 165.292 146.003 152.573 147.498 139.706C143.375 151.102 141.239 165.09 138.088 177.407C137.942 177.322 137.74 177.371 137.733 177.573C126.576 173.353 114.189 173.525 103.178 178.003C100.42 179.109 97.6191 180.102 94.8755 181.243C93.9385 181.772 92.072 181.74 91.7574 182.897C91.4203 182.112 90.9673 181.376 90.3658 180.88C90.178 180.493 88.0453 179.803 87.8371 180.568C75.3284 182.285 63.166 187.727 50.2952 186.808C51.8183 181.248 51.6381 175.243 51.7401 169.5L51.7092 168.854C51.4443 163.197 51.2526 156.195 49.335 151.54C50.5621 163.26 49.6711 174.999 48.1735 186.61C39.0954 185.439 43.2755 190.629 49.322 190.435C61.5242 191.314 72.7853 185.917 84.0152 181.984C90.149 179.532 90.8443 181.609 90.5708 187.437C90.5651 195.025 87.1288 201.951 84.0161 208.683L82.6177 211.827C80.2934 217.06 78.0011 222.258 75.7429 227.553C65.8768 224.282 54.7688 226.077 44.5479 226.673C36.749 227.652 31.1489 227.305 24.5511 222.793C22.1713 218.246 19.0355 213.934 17.8094 208.806C16.3872 204.105 15.9137 199.181 15.499 194.31L15.8727 192.947C20.6813 175.459 26.0026 158.055 33.2742 141.398L33.6677 140.48C36.1329 134.711 38.637 128.658 43.6246 124.617C51.9949 118.436 62.3471 115.695 71.146 110.196L71.2022 110.598C72.0951 116.906 73.6376 123.446 77.6752 128.522C85.1357 137.682 99.2217 137.94 108.769 131.991C118.701 126.499 124.659 116.275 127.558 105.587L127.592 105.47C127.864 104.517 128.619 101.634 129.831 101.602ZM102.859 204.415C102.865 207.774 103.528 211.086 103.976 214.402C98.8131 213.383 93.6651 212.672 88.5868 211.295C93.5336 209.426 98.3407 207.174 102.859 204.415ZM115.292 177.32C122.821 175.846 130.529 176.728 137.974 177.915C137.165 181.675 136.241 185.402 135.469 189.168C132.802 189.046 107.512 193.524 110.366 197.12C106.633 199.116 103.096 201.463 99.3803 203.503C95.6428 205.554 91.7516 207.317 87.7373 208.749L87.949 208.278C91.4039 200.559 94.6318 191.874 91.9697 183.438C95.5493 184.875 100.436 181.789 103.904 180.634C107.585 179.156 111.377 177.991 115.292 177.32ZM169.495 147.433C169.47 146.024 165.121 150.062 164.553 150.481L164.21 150.792C160.037 154.579 155.914 158.746 153.589 163.943C153.419 169.051 161.031 156.677 162.086 155.921C164.388 152.958 167.194 150.384 169.495 147.433ZM49.1461 159.455C50.3228 159.842 47.1112 155.852 45.8588 156.143C45.3605 156.07 44.9268 156.792 45.4801 157.041L45.7548 157.162C47.04 157.719 48.3538 158.195 49.1461 159.455Z" fill="#333333"/>
<path fill-rule="evenodd" clip-rule="evenodd" d="M92.2008 1.75619C82.0202 1.75619 69.8053 6.70201 68.7668 6.80093L68.7388 6.80243C68.1924 6.80243 66.0573 8.43244 62.3337 11.6925L66.3668 19.5754L66.0404 19.8877C64.4786 21.3883 63.1452 22.7561 62.0928 23.8343C53.4994 32.6379 51.9548 67.2034 53.98 79.2575C56.0052 91.3117 59.7562 103.107 77.2194 103.107C94.6826 103.107 114.111 92.5845 117.104 89.3076C119.099 87.1231 121.34 86.0765 123.827 86.1679C123.929 86.0386 124.031 85.9098 124.131 85.7813L124.497 85.7293C127.939 85.2298 130.405 84.5574 131.896 83.7124C134.807 82.0618 138.007 73.3847 138.007 71.4732C138.007 69.5809 142.785 55.8147 142.881 54.3579L142.882 54.3176C142.882 53.0998 149.124 47.5015 149.124 45.7237C149.124 43.9458 150.382 44.0536 149.124 37.7887L148.759 35.9482C147.42 29.2778 144.799 18.2327 134.807 13.4332C123.827 8.15909 102.484 1.75619 92.2008 1.75619Z" fill="white"/>
<path fill-rule="evenodd" clip-rule="evenodd" d="M92.2024 1.82299C82.0218 1.82299 69.8069 6.76882 68.7684 6.86773L68.7404 6.86924C68.194 6.86924 66.0589 8.49924 62.3353 11.7593L63.2405 13.5273C83.285 13.9218 97.0813 15.5544 104.629 18.425C113.38 21.7529 118.873 34.3964 121.109 56.3552C124.166 57.8062 127.224 59.716 130.281 62.0846C133.338 64.4531 134.112 65.6765 132.603 65.7547C132.734 70.8306 132.329 74.3753 131.387 76.3887C130.444 78.4022 127.183 79.5871 121.603 79.9435L120.186 84.7007L120.382 86.9055C121.473 86.4139 122.622 86.1904 123.828 86.2347C123.931 86.1054 124.032 85.9766 124.133 85.8481L124.499 85.7961C127.941 85.2966 130.407 84.6242 131.897 83.7792C134.809 82.1286 138.009 73.4515 138.009 71.54C138.009 69.6477 142.787 55.8815 142.882 54.4247L142.884 54.3844C142.884 53.1666 149.126 47.5683 149.126 45.7905C149.126 44.0126 150.384 44.1204 149.126 37.8555L148.76 36.015C147.421 29.3446 144.801 18.2995 134.809 13.5C123.828 8.2259 102.486 1.82299 92.2024 1.82299Z" fill="#EEEEEE"/>
<path fill-rule="evenodd" clip-rule="evenodd" d="M136.502 13.1854C131.026 7.36059 99.9367 -1.64896 84.2078 0.260851L83.736 0.322081C82.4808 0.48159 81.2438 0.723132 80.0229 1.05127C76.0768 1.97482 72.0006 3.37326 68.7401 5.70916C66.018 7.62008 57.4311 10.7408 59.9619 15.7398C59.0235 17.5215 58.6733 19.7227 59.3075 21.4776C59.3873 22.0837 59.5738 22.642 59.8123 23.2208C57.8074 26.1856 56.22 29.5385 54.935 32.7275C52.6895 40.7533 51.2922 49.1057 51.0876 57.2942C50.4068 72.8514 52.109 91.4344 65.6301 101.494C73.7981 107.869 86.5929 108.083 95.7719 100.179C96.2928 99.5616 98.7425 97.8945 97.925 97.6022C97.6817 97.8596 97.4316 98.1103 97.1769 98.3564C97.1885 98.3291 97.1908 98.3017 97.186 98.2721L97.4256 98.0547C97.8767 97.6365 98.461 97.03 97.7954 97.1487C97.7661 97.1829 97.734 97.2125 97.7024 97.2467C97.5615 97.3314 97.455 97.4049 97.3721 97.4696L97.3295 97.5038L97.3427 97.4901C97.7261 97.0804 97.9559 96.6625 97.3827 96.9294L97.3068 96.9664C97.0519 97.2353 96.7929 97.4928 96.5291 97.7434C96.5334 97.7138 96.5291 97.6842 96.513 97.6523L96.7589 97.4142C96.999 97.1785 96.9623 97.1774 96.8449 96.9869C97.3552 96.2702 96.4027 96.6959 96.3358 96.9755C95.7398 96.8342 95.2166 97.9553 94.8328 98.0921C78.0062 111.056 53.5875 99.5529 53.9829 63.4298L53.989 62.7231C54.1046 51.1724 55.0746 39.3005 59.8421 28.8446C60.3057 27.8374 60.8244 26.8576 61.3949 25.9096C61.7883 25.1987 62.209 24.5059 62.6615 23.8314C63.9283 23.7289 65.1789 23.4965 66.4112 23.1364C66.8343 23.0293 67.2527 22.9109 67.6709 22.7719C73.7831 23.1059 79.7591 23.4694 85.8884 23.8139L87.8029 23.9334C92.9952 24.2679 98.3649 24.8037 102.555 28.022C106.666 30.9519 106.685 36.7296 110.204 39.9464C115.223 43.3597 115.259 46.4375 116.226 51.4676C116.154 55.2593 113.53 60.7685 118.345 62.3643C117.533 63.5248 118.665 62.9672 118.754 62.5603C118.763 62.5626 118.772 62.5648 118.779 62.5648C118.055 63.9131 119.119 63.0641 119.213 62.6309C119.27 62.615 119.327 62.5739 119.384 62.517C118.655 63.6983 119.833 62.8711 119.764 62.656C121.173 60.4855 124.073 60.1485 126.117 60.7236C126.142 60.8011 126.233 60.808 126.29 60.7669C134.982 62.6546 132.739 80.6873 123.832 78.9441C123.45 78.8662 123.459 79.0496 123.384 79.0672C123.589 78.5258 123.009 78.7461 123.015 78.8598L122.98 78.8581C122.952 78.8556 122.964 78.8526 122.943 78.8598C123.142 77.7526 122.022 79.3568 122.11 79.4227C122.076 79.4022 122.037 79.3908 122.003 79.3862L122.042 79.2811C122.228 78.785 122.212 78.9912 122.21 78.7072C122.35 78.356 122.36 78.5096 122.328 78.2808C121.837 77.8998 121.692 79.0556 121.528 79.1401C121.809 78.7482 121.586 78.428 121.321 78.6408C119.315 82.8697 116.723 86.843 113.374 89.9731C113.008 90.2625 112.637 90.5473 112.253 90.8162C110.828 92.0597 108.643 92.8593 107.31 93.9608C107.31 93.979 107.319 94.0018 107.332 94.0246L107.302 94.0522L107.271 94.0816L106.807 94.3049C106.67 94.4211 106.548 94.551 106.439 94.6945C106.323 94.829 106.22 94.9771 106.134 95.1343C106.091 95.3257 106.186 95.4055 106.368 95.3235C106.448 95.2961 106.527 95.2642 106.607 95.2346C106.602 95.2414 106.6 95.246 106.595 95.2505C106.569 95.2901 106.393 95.7004 106.596 95.6337L106.62 95.6242C106.732 95.5832 106.843 95.5376 106.952 95.4944C106.823 95.6561 106.705 95.8316 106.6 95.9797C106.489 96.0959 106.421 96.2327 106.393 96.3876C106.398 96.4742 106.445 96.5107 106.532 96.4993C106.664 96.456 106.793 96.4104 106.923 96.3625L106.886 96.4331C106.794 96.614 106.664 96.9172 106.896 96.816C107.094 96.7545 107.284 96.6838 107.475 96.6064C107.492 96.6383 107.523 96.6497 107.587 96.62C108.194 96.4036 108.781 96.1392 109.342 95.827C109.836 95.467 110.334 95.1138 110.829 94.7561C111.296 94.4758 111.746 94.1636 112.176 93.8127C115.051 91.9514 117.569 89.587 119.566 86.9538C122.906 89.8525 129.584 87.0832 133.715 84.8141C137.369 82.786 138.805 79.0362 139.176 74.9933C139.948 69.5504 144.387 67.6874 144.078 55.7447C144.085 55.747 144.092 55.747 144.101 55.747C144.263 55.6991 144.419 55.6353 144.567 55.5533C144.72 55.4804 144.863 55.3938 144.997 55.2889L145.163 55.0588C145.249 55.0109 145.327 54.9608 145.386 54.9107L145.416 54.9503C145.513 55.0677 145.448 54.8911 145.443 54.856L145.731 54.463C146.415 53.5275 147.165 52.4779 147.776 51.6385L147.795 51.6726C147.809 51.6983 147.816 51.7169 147.81 51.7251C149.264 49.6314 150.631 47.1025 151.011 44.6542C151.46 42.7684 151.285 40.8251 150.893 39.0783C149.215 32.9611 143.719 19.1184 136.502 13.1854ZM97.039 97.7829L97.1301 97.7015L97.05 97.8021C97.008 97.8541 96.965 97.9008 96.895 97.9485C96.8995 97.9326 96.8995 97.9166 96.8975 97.8984C96.9439 97.8629 96.9914 97.824 97.039 97.7829ZM84.2774 3.33453C94.9437 2.41553 105.435 4.77034 115.613 7.62077L116.315 7.82301C122.103 9.47793 128.223 10.9671 133.114 14.5093C139.947 19.7542 143.475 28.0979 146.555 35.8015C149.244 41.5251 147.869 47.9791 143.817 51.9757C143.395 48.0042 142.677 44.1488 141.553 40.3245C141.319 39.727 141.496 39.5313 140.991 39.4533C140.228 49.7594 143.986 57.374 136.549 69.5883C133.321 75.3515 137.057 79.5685 127.943 82.6012L127.697 82.6957C125.798 83.4137 123.725 83.9804 121.865 83.579L122.031 83.3074C122.201 83.0278 122.253 82.892 122.006 82.7724C122.012 82.7587 122.022 82.745 122.031 82.7291C122.231 82.3508 122.424 81.968 122.608 81.5806C122.683 81.6057 122.758 81.6239 122.836 81.6444C122.786 81.7378 122.779 81.8313 122.92 81.8632C123.421 82.0354 123.935 82.1045 124.462 82.0722L124.575 82.0637C125.17 82.0272 125.545 81.9185 125.881 81.8176C125.992 81.7994 126.103 81.7811 126.213 81.7583C127.291 81.5186 128.434 80.9088 129.173 80.3045C137.6 75.5083 136.729 59.1816 126.342 57.6383C126.129 47.3586 121.25 30.0158 113.152 20.2204C105.833 11.2102 85.8516 7.30494 71.9499 8.68195C71.7473 8.74918 71.5447 8.81708 71.3421 8.88567C69.1974 9.07663 67.1533 10.0341 65.007 10.4789C66.548 9.32159 68.2962 8.5507 70.0969 7.89557C73.6847 5.6964 77.7977 4.50646 81.7713 3.66722C82.5945 3.46441 83.429 3.35276 84.2774 3.33453ZM126.817 65.8963C126.259 65.5923 126.323 65.8858 126.194 65.8006C122.177 65.4722 117.846 68.9967 115.6 71.9348C115.778 72.1194 116.257 71.5725 116.341 71.4859C116.353 71.4973 116.366 71.5064 116.38 71.511L116.318 71.5994C115.408 72.9083 117.212 71.3681 117.381 71.0507C117.41 71.0666 117.44 71.0758 117.474 71.0689C117.331 71.2095 116.894 71.5762 116.819 71.8368L116.703 71.9334C115.611 72.8705 115.702 73.5755 116.942 72.2447C116.912 72.3063 116.901 72.3632 116.921 72.4088L116.879 72.4373C116.269 72.8642 115.768 74.0543 117.042 72.8326C116.909 73.725 118.305 72.0002 118.349 72.0123C120.764 70.113 124.319 68.2659 127.347 68.0177L127.451 68.0057C128.007 67.9342 128.27 67.7689 128.075 67.4048C128.759 67.2416 128.599 66.9039 128.275 66.9148C128.758 66.5967 128.323 66.2925 128.043 66.4113C128.236 65.8769 127.463 66.2328 127.393 66.1583C126.992 65.5387 126.884 66.0556 126.817 65.8963ZM135.238 32.7753C133.308 32.0671 127.609 34.1872 128.065 36.995C128.336 37.6397 129.231 38.0091 129.86 37.6452L130.68 37.0928C132.108 36.1344 133.396 35.294 134.93 34.4582C135.764 34.0432 136.123 33.1623 135.238 32.7753ZM124.26 28.6028L125.005 28.1168C129.027 25.4795 134.711 21.4834 124.63 25.6179C123.481 26.1117 121.954 26.4038 121.327 27.5003C120.342 29.5213 122.934 29.6571 124.26 28.6028ZM123.808 16.7697C124.131 15.5426 120.116 16.9825 118.947 17.3622L118.769 17.4295C117.632 17.8541 116.329 18.2479 115.649 19.2311C114.852 20.5897 116.465 20.8711 117.464 20.2575C119.512 18.9162 121.757 17.9043 123.808 16.7697ZM113.599 11.0536C115.859 8.58043 109.81 10.9496 108.904 11.6073L108.878 11.6267C108.202 12.1036 108.34 13.1309 108.975 13.4325C110.782 13.467 112.111 11.9575 113.599 11.0536ZM103.315 8.34393C106.907 5.75647 102.175 6.9872 100.531 8.00122C99.4106 8.99131 100.565 10.6627 103.315 8.34393Z" fill="#333333"/>
<path fill-rule="evenodd" clip-rule="evenodd" d="M73.8209 79.1512C73.4713 78.5434 72.6665 77.9804 71.93 78.0667C68.6307 78.4537 68.6364 82.4537 69.9104 84.7889C71.04 86.8596 73.3777 88.075 75.7174 87.8975C78.1755 87.7109 80.2698 86.2657 81.1916 83.9663C81.8011 82.4453 82.0828 79.6372 80.4613 78.6152C80.4312 78.5961 80.3815 78.6009 80.3576 78.6284C79.5801 79.5329 79.5495 80.8907 78.8689 81.8977C78.2359 82.8342 77.2524 83.6076 76.1003 83.727C75.2398 83.8164 74.3694 83.506 74.0328 82.7335C73.8507 82.3157 73.8714 82.0888 73.9399 81.8012L74.0021 81.5513C74.2176 80.676 74.3144 80.0095 73.8209 79.1512ZM72.9389 61.6086C71.2182 62.6546 68.5963 65.0935 70.4474 67.6865C72.6264 69.9728 75.7635 67.3514 77.3095 66.1658C78.743 65.247 80.3535 67.6101 79.0236 68.683C67.8525 76.9536 63.3191 61.8821 72.0686 60.3789C73.0319 60.2132 73.3897 61.285 72.9389 61.6086ZM91.1099 54.4365C90.0537 52.8519 87.6429 53.0852 87.0611 54.9656C86.746 55.9842 87.1812 56.8998 87.1587 57.917C87.1397 58.7763 87.196 59.7338 87.4594 60.566C88.0601 62.4637 89.7669 63.804 91.786 63.7484C93.7986 63.693 95.5712 62.4193 96.4141 60.6252C97.2599 58.8244 97.0808 56.9606 96.4633 55.1295C96.4337 55.0415 96.3183 54.9989 96.2488 55.0729C95.5189 55.8487 94.9845 56.6676 94.4316 57.5363L93.865 58.4266C93.432 59.097 92.8026 59.9534 91.9941 59.8996L91.8727 59.8876C91.648 59.8683 91.6825 59.9129 91.5091 59.6067C91.4289 59.4649 91.4435 59.2015 91.4048 59.0342L91.3913 58.9777L91.3987 58.9473C91.4158 58.8663 91.4327 58.7136 91.4465 58.4488L91.4494 58.3903C91.508 57.1514 91.8582 55.5592 91.1099 54.4365ZM64.3371 55.4914C64.5264 53.4648 61.6771 53.0147 60.7299 54.5143C60.2358 55.2963 60.092 56.2787 59.9827 57.2094L59.9316 57.6512C59.8195 58.6071 59.7751 59.6015 60.1901 60.4932C60.8436 61.8975 62.2648 62.6399 63.7979 62.5224C65.262 62.4098 66.5978 61.561 67.3019 60.2724C67.9297 59.1225 68.5538 56.8776 67.7913 55.6783C67.7453 55.6056 67.6533 55.5962 67.5901 55.6523C66.8696 56.2919 66.7523 57.4586 66.3239 58.292C65.882 59.1515 65.2119 59.9891 64.1962 60.1197C63.2246 60.2446 62.8534 59.7139 63.1013 58.7876C63.421 57.5917 64.2167 56.7782 64.3371 55.4914ZM90.3403 42.3875L89.8744 42.209C88.2779 41.6059 86.086 40.9088 84.788 42.207C83.9873 43.0075 83.8348 44.1867 84.4063 45.1636C85.0988 46.347 86.341 46.3761 87.5405 46.5504C88.9047 46.7487 90.2922 47.1256 91.5624 47.6629C92.9932 48.2684 94.321 49.0231 95.6219 49.866C96.8583 50.6669 98.0904 51.976 99.5704 52.2228C99.6308 52.2328 99.6994 52.2069 99.7151 52.1406C100.051 50.6936 99.1172 49.2696 98.2836 48.1407C97.2751 46.774 96.053 45.6522 94.6872 44.6464C93.3689 43.6754 91.8627 42.9738 90.3403 42.3875ZM61.3399 47.532L61.1976 47.5071C60.2294 47.3459 59.3521 47.383 58.6225 48.1498C58.0656 48.7347 57.851 49.4928 58.1164 50.2662C58.3614 50.9797 58.9092 51.7045 59.7042 51.854C62.3883 52.359 65.3613 52.2756 68.0589 51.8932C69.293 51.7182 70.5383 51.504 71.7405 51.1663L72.2935 51.006C73.2971 50.7193 74.446 50.4198 75.175 49.6817C75.4371 49.4165 75.286 49.0369 74.9725 48.914C73.7005 48.4159 71.957 48.6809 70.6008 48.642C69.023 48.5969 67.4427 48.4786 65.8725 48.3157C64.338 48.1561 62.8532 47.8096 61.3399 47.532Z" fill="#333333"/>
<path fill-rule="evenodd" clip-rule="evenodd" d="M52.5452 62.9966C55.3118 65.8552 59.9303 66.6755 63.6111 65.1424C73.0622 61.1937 68.4362 48.8773 61.1473 45.5697C60.2368 45.3428 59.0206 44.8043 57.9116 44.6822C57.8113 44.633 57.593 44.7754 57.3285 44.6407C49.2912 45.5381 47.461 58.0144 52.5452 62.9966ZM83.0293 63.7283C86.1322 67.8438 91.9009 69.1135 96.6142 67.2003C105.925 63.5334 102.623 52.6118 96.2523 48.3302C82.795 43.2735 77.2379 56.14 83.0293 63.7283ZM103.214 54.6093C103.223 54.6052 103.231 54.6032 103.24 54.5991C103.191 54.5774 103.142 54.5558 103.093 54.5337C103.109 54.5754 103.126 54.6166 103.142 54.6583C103.166 54.6417 103.187 54.6223 103.214 54.6093ZM46.1393 50.1606C46.8991 50.1622 47.9965 50.2871 48.6254 50.8142C50.1763 45.5839 55.9009 40.7432 60.8794 44.2729C64.7999 45.5337 67.7091 48.3299 69.3625 52.0474C72.3437 50.2741 77.0315 51.0313 79.6167 53.3763C81.3097 47.7819 85.4766 45.8229 90.4362 45.5337C95.8495 44.6471 101.245 49.9043 102.928 54.1217C104.328 53.9624 106.42 53.5169 107.737 54.3808C116.283 52.1395 131.226 50.9037 132.964 52.149C134.202 52.6241 134.881 55.5468 133.152 55.7045C131.645 55.4905 133.328 53.563 131.809 53.3526C123.714 52.8509 115.856 54.4811 107.847 55.1651C107.132 56.127 104.821 56.4487 103.589 56.0622C105.53 63.2165 101.34 68.0838 95.0606 69.5417C85.338 71.775 76.8793 63.0777 79.4216 54.0312C76.4764 52.566 73.0886 52.6289 69.8802 53.4007C75.2416 73.132 43.4635 72.2467 48.4267 51.4903C45.1237 53.1332 44.4064 50.4922 46.1393 50.1606Z" fill="#333333"/>
</svg>
